<?xml version="1.0" encoding="utf-8"?>
<!-- Generator: Adobe Illustrator 18.0.0, SVG Export Plug-In . SVG Version: 6.00 Build 0)  -->
<!DOCTYPE svg PUBLIC "-//W3C//DTD SVG 1.1//EN" "http://www.w3.org/Graphics/SVG/1.1/DTD/svg11.dtd">
<svg version="1.1" id="Layer_1" xmlns="http://www.w3.org/2000/svg" xmlns:xlink="http://www.w3.org/1999/xlink" x="0px" y="0px"
	 viewBox="0 0 31 42.8" enable-background="new 0 0 31 42.8" xml:space="preserve">
<path fill="#F93200" d="M14.5,18.8h2v20h-2V18.8z M21.8,38.7l1.4-20l2,0.1l-1.4,20L21.8,38.7z M5.4,19l2-0.2l2.1,19.9l-2,0.2L5.4,19
	z M0,14.8l3,28h25l3-28H0z"/>
<polygon fill="#F93200" points="3.2,4.8 0.2,11.8 30.8,11.8 27.8,4.8 "/>
<g>
	<defs>
		<rect id="SVGID_1_" y="0" width="31" height="42.8"/>
	</defs>
	<clipPath id="SVGID_2_">
		<use xlink:href="#SVGID_1_"  overflow="visible"/>
	</clipPath>
	<path clip-path="url(#SVGID_2_)" fill="#F93200" d="M22.5,5.7c0-3.2-3.1-5.8-7-5.8s-7,2.6-7,5.8c0,1.5,0.7,2.8,1.8,3.9
		C10.1,9,10,8.4,10,7.7C10,4.6,12.5,2,15.5,2S21,4.6,21,7.7c0,0.7-0.1,1.3-0.3,1.9C21.8,8.6,22.5,7.2,22.5,5.7"/>
</g>
</svg>
