<?xml version="1.0" encoding="UTF-8"?>
<svg width="388.742" height="388.87503" xmlns="http://www.w3.org/2000/svg" xmlns:xlink="http://www.w3.org/1999/xlink">
 <title>pencil</title>
 <defs>
  <linearGradient id="linearGradient3706">
   <stop stop-color="#ffffff" stop-opacity="0.826531" id="stop3708" offset="0"/>
   <stop stop-color="#ffffff" stop-opacity="0" id="stop3710" offset="1"/>
  </linearGradient>
  <linearGradient id="linearGradient4254">
   <stop stop-color="#ff9191" id="stop4256" offset="0"/>
   <stop stop-color="#b55858" id="stop4258" offset="1"/>
  </linearGradient>
  <linearGradient id="linearGradient3707">
   <stop stop-color="#ffffff" id="stop3687" offset="0"/>
   <stop stop-color="#ffdd7c" id="stop3711" offset="1"/>
  </linearGradient>
  <linearGradient y2="0.600774" x2="0.582817" y1="0.42018" x1="0.403512" id="linearGradient7803" xlink:href="#linearGradient3706"/>
  <linearGradient y2="0.710906" x2="0.570303" y1="0.429687" x1="0.289086" id="linearGradient7812" xlink:href="#linearGradient3707"/>
  <linearGradient y2="0.76024" x2="0.848304" y1="0.152945" x1="0.238867" id="linearGradient7819" xlink:href="#linearGradient4254"/>
 </defs>
 <metadata id="metadata7">image/svg+xml</metadata>
 <g>
  <title>Layer 1</title>
  <g display="inline" id="layer1"/>
  <g display="inline" id="layer2">
   <g id="g7826">
    <path fill="url(#linearGradient7819)" fill-rule="nonzero" stroke-width="5.164" stroke-linecap="round" stroke-linejoin="round" marker-start="none" marker-mid="none" marker-end="none" stroke-miterlimit="4" stroke-dashoffset="0" d="m358.041718,30.658722c-23.742188,-23.721497 -49.662415,-36.328369 -57.815338,-28.182556c-0.553284,0.552826 -1.036713,1.177185 -1.401337,1.886932l-51.662201,51.617157l7.798157,7.791351l30.339294,30.312866l9.747681,9.739166l38.13736,38.104156l53.368164,-53.321625c-0.029541,-0.095886 -0.030579,-0.207642 -0.060852,-0.30423l-0.060913,-0.060883c0.018188,-0.019623 0.042664,-0.040955 0.060791,-0.06076c7.685059,-8.40036 -4.934021,-34.02533 -28.450806,-57.521576z" id="path4217"/>
    <path fill="#e3dedb" fill-rule="nonzero" stroke-width="5.164" stroke-linecap="round" stroke-linejoin="round" marker-start="none" marker-mid="none" marker-end="none" stroke-miterlimit="4" stroke-dashoffset="0" d="m261.114105,42.041168l-48.311523,48.269409l-5.543915,5.539093l7.798126,7.791351l78.224365,78.156189l53.855469,-53.808502l-43.011292,-42.973755l-35.213104,-35.182434l-7.798126,-7.791351z" id="path4235"/>
    <path fill="#000000" fill-rule="nonzero" stroke-width="5.164" stroke-linecap="round" stroke-linejoin="round" marker-start="none" marker-mid="none" marker-end="none" stroke-miterlimit="4" stroke-dashoffset="0" d="m329.651825,145.458221l-86.022491,-85.94751l-3.898956,3.895538l-1.949585,1.947876l86.022522,85.94754l1.949585,-1.947876l3.898926,-3.895569z" id="path4143"/>
    <path fill="#000000" fill-rule="nonzero" stroke-width="5.164" stroke-linecap="round" stroke-linejoin="round" marker-start="none" marker-mid="none" marker-end="none" stroke-miterlimit="4" stroke-dashoffset="0" d="m339.399506,135.719086l-86.022522,-85.94754l-3.899109,3.895721l-1.949615,1.947876l86.022552,85.94754l1.949524,-1.947876l3.89917,-3.895721z" id="path4147"/>
    <path fill="#000000" fill-rule="nonzero" stroke-width="5.164" stroke-linecap="round" stroke-linejoin="round" marker-start="none" marker-mid="none" marker-end="none" stroke-miterlimit="4" stroke-dashoffset="0" d="m319.904205,155.197388l-86.022522,-85.94754l-3.898987,3.895599l-1.949554,1.947845l86.022491,85.94754l1.949585,-1.947845l3.898987,-3.895599z" id="path4163"/>
    <path fill="url(#linearGradient7812)" fill-rule="nonzero" stroke-width="5.164" stroke-linecap="round" stroke-linejoin="round" marker-start="none" marker-mid="none" marker-end="none" stroke-miterlimit="4" stroke-dashoffset="0" d="m219.869598,83.249725l-184.899704,184.738525l-34.969452,120.886536l10.966141,-3.1651l110.025818,-31.773865l184.899719,-184.738556l-16.692719,-16.678162l-5.848511,-5.843445l-15.596161,-15.582581l-1.949585,-1.947876l-5.848541,-5.843414l-1.949554,-1.947876l-15.596008,-15.582397l-5.848694,-5.843628l-8.894592,-8.886841l-7.798157,-7.791321z" id="path4106"/>
    <path fill="#000000" fill-rule="nonzero" stroke-width="5.164" stroke-linecap="round" stroke-linejoin="round" marker-start="none" marker-mid="none" marker-end="none" stroke-miterlimit="4" stroke-dashoffset="0" d="m47.54538,375.145233l-16.901642,-16.886902l-16.901642,-16.886902l-13.741653,47.503357l47.544937,-13.729553z" id="path3990"/>
    <path fill="#ff9191" fill-rule="nonzero" stroke-width="5.164" stroke-linecap="round" stroke-linejoin="round" marker-start="none" marker-mid="none" marker-end="none" stroke-miterlimit="4" stroke-dashoffset="0" d="m386.492645,88.301941c0.030273,0.096588 0.031311,0.208344 0.060852,0.30423l0.121826,-0.121735l-0.182678,-0.182495z" id="path4089"/>
    <path fill="#ffc700" fill-rule="nonzero" stroke-width="5.164" stroke-linecap="round" stroke-linejoin="round" marker-start="none" marker-mid="none" marker-end="none" stroke-miterlimit="4" stroke-dashoffset="0" d="m219.869598,83.249725l-184.899704,184.738525l41.728226,1.281921l1.283051,41.691895l41.72821,1.28186l1.28302,41.691895l184.899719,-184.738556l-21.505646,-21.486908l-21.505615,-21.486877l-21.505615,-21.486877l-21.505646,-21.486877z" id="path3424"/>
    <path fill="#ffda00" fill-rule="nonzero" stroke-width="5.164" stroke-linecap="round" stroke-linejoin="round" marker-start="none" marker-mid="none" marker-end="none" stroke-miterlimit="4" stroke-dashoffset="0" d="m219.869598,83.249725l-184.899704,184.738525l41.728226,1.281921l164.677124,-164.533569l-21.505646,-21.486877z" id="path3426"/>
    <path fill="#ff8a00" fill-rule="nonzero" stroke-width="5.164" stroke-linecap="round" stroke-linejoin="round" marker-start="none" marker-mid="none" marker-end="none" stroke-miterlimit="4" stroke-dashoffset="0" d="m119.709381,312.243927l1.28302,41.691895l184.899719,-184.738556l-21.505646,-21.486908l-164.677094,164.533569z" id="path3428"/>
    <path fill="#ffa100" fill-rule="nonzero" stroke-width="5.164" stroke-linecap="round" stroke-linejoin="round" marker-start="none" marker-mid="none" marker-end="none" stroke-miterlimit="4" stroke-dashoffset="0" d="m77.981171,310.962067l41.72821,1.28186l164.677094,-164.533569l-21.505615,-21.486877l-184.899689,184.738586z" id="path3430"/>
    <path fill="url(#linearGradient7803)" fill-rule="nonzero" stroke-width="5" marker-start="none" marker-mid="none" marker-end="none" stroke-miterlimit="4" stroke-dashoffset="50" d="m281.766327,64.191956c-1.557373,-1.555939 -3.371399,-2.773651 -5.292664,-3.551636c-1.921295,-0.778015 -3.960999,-1.10498 -6.003571,-1.10498c-2.042633,0 -4.082336,0.326965 -6.003601,1.10498c-1.921295,0.777985 -3.735321,1.995697 -5.292633,3.551666l-29.227966,29.202484l-173.551086,173.399811c-0.539093,0.538635 -0.743561,1.233826 -1.184906,1.815308l21.486511,0.631409l1.263916,41.672791l24.646301,0.789246l172.919128,-172.768402l29.227997,-29.202515c1.557251,-1.555969 2.776062,-3.368439 3.554749,-5.288025c0.778564,-1.919617 1.105896,-3.95755 1.105896,-5.998352c-0.000061,-2.040833 -0.327209,-4.078796 -1.105896,-5.998383c-0.778748,-1.919556 -1.997437,-3.732056 -3.554749,-5.287994l-22.987427,-22.967407z" id="path3680"/>
    <path opacity="0.8" fill="#ffffff" fill-rule="nonzero" stroke-width="5.164" stroke-linecap="round" stroke-linejoin="round" marker-start="none" marker-mid="none" marker-end="none" stroke-miterlimit="4" stroke-dashoffset="0" d="m30.643738,358.258331l-11.244797,-11.230042l-19.398499,41.846497l30.643295,-30.616455z" id="path4288"/>
   </g>
  </g>
 </g>
</svg>